<svg id="undraw_happy_music_g6wc" xmlns="http://www.w3.org/2000/svg" width="394.235" height="343.193" viewBox="0 0 394.235 343.193">
  <path id="Path_1" data-name="Path 1" d="M394.235,743.721l-282.212,4.255L0,728.121H174.883Z" transform="translate(0 -404.782)" fill="#e6e6e6"/>
  <circle id="Ellipse_2" data-name="Ellipse 2" cx="45.144" cy="45.144" r="45.144" transform="translate(279.838 0)" fill="#ff6584"/>
  <path id="Path_2" data-name="Path 2" d="M335.954,781.549s.66-13.837,14.2-12.229" transform="translate(-256.092 -455.85)" fill="#3f3d56"/>
  <circle id="Ellipse_3" data-name="Ellipse 3" cx="6.775" cy="6.775" r="6.775" transform="translate(69.262 298.98)" fill="#c8003a"/>
  <rect id="Rectangle_24" data-name="Rectangle 24" width="1.912" height="13.387" transform="translate(74.935 317.165)" fill="#3f3d56"/>
  <path id="Path_3" data-name="Path 3" d="M838.4,786.871s.66-13.837,14.2-12.228" transform="translate(-535.416 -458.809)" fill="#3f3d56"/>
  <circle id="Ellipse_4" data-name="Ellipse 4" cx="6.775" cy="6.775" r="6.775" transform="translate(292.385 301.344)" fill="#c8003a"/>
  <rect id="Rectangle_25" data-name="Rectangle 25" width="1.912" height="13.387" transform="translate(298.058 319.529)" fill="#3f3d56"/>
  <path id="Path_4" data-name="Path 4" d="M911.851,792.194s.66-13.837,14.2-12.228" transform="translate(-576.249 -461.768)" fill="#3f3d56"/>
  <circle id="Ellipse_5" data-name="Ellipse 5" cx="6.775" cy="6.775" r="6.775" transform="translate(325.002 303.707)" fill="#c8003a"/>
  <rect id="Rectangle_26" data-name="Rectangle 26" width="1.912" height="13.387" transform="translate(330.675 321.892)" fill="#3f3d56"/>
  <path id="Path_5" data-name="Path 5" d="M456.243,766.645s.66-13.837,14.2-12.228" transform="translate(-322.964 -447.564)" fill="#3f3d56"/>
  <circle id="Ellipse_6" data-name="Ellipse 6" cx="6.775" cy="6.775" r="6.775" transform="translate(122.679 292.362)" fill="#c8003a"/>
  <rect id="Rectangle_27" data-name="Rectangle 27" width="1.912" height="13.387" transform="translate(128.352 310.547)" fill="#3f3d56"/>
  <path id="Path_6" data-name="Path 6" d="M229.5,771.968s.66-13.837,14.2-12.228" transform="translate(-196.913 -450.524)" fill="#3f3d56"/>
  <circle id="Ellipse_7" data-name="Ellipse 7" cx="6.775" cy="6.775" r="6.775" transform="translate(21.99 294.726)" fill="#c8003a"/>
  <rect id="Rectangle_28" data-name="Rectangle 28" width="1.912" height="13.387" transform="translate(27.663 312.911)" fill="#3f3d56"/>
  <circle id="Ellipse_8" data-name="Ellipse 8" cx="73.817" cy="73.817" r="73.817" transform="translate(122.586 149.765)" fill="#3f3d56"/>
  <path id="Path_7" data-name="Path 7" d="M485.327,533.571a19.534,19.534,0,0,1,29.983,0,21.711,21.711,0,1,0-29.983,0Z" transform="translate(-335.397 -304.063)" fill="#fff"/>
  <path id="Path_8" data-name="Path 8" d="M617.332,533.571a19.534,19.534,0,0,1,29.983,0,21.711,21.711,0,1,0-29.983,0Z" transform="translate(-408.782 -304.063)" fill="#fff"/>
  <circle id="Ellipse_9" data-name="Ellipse 9" cx="7.468" cy="7.468" r="7.468" transform="translate(150.047 198.943)" fill="#3f3d56"/>
  <circle id="Ellipse_10" data-name="Ellipse 10" cx="7.468" cy="7.468" r="7.468" transform="translate(208.665 198.943)" fill="#3f3d56"/>
  <circle id="Ellipse_11" data-name="Ellipse 11" cx="8.684" cy="8.684" r="8.684" transform="translate(134.527 233.353)" fill="#ff6584"/>
  <circle id="Ellipse_12" data-name="Ellipse 12" cx="8.684" cy="8.684" r="8.684" transform="translate(234.397 233.353)" fill="#ff6584"/>
  <path id="Path_9" data-name="Path 9" d="M426.789,505.926l-6.513,28.224,10.855-10.855Z" transform="translate(-233.643 -281.258)" fill="#ff6584"/>
  <path id="Path_10" data-name="Path 10" d="M480.429,695.979l-7.395-6.206.172,6.206h-2.3l-.183-6.562-9.984,6.563h-4.18l14.089-9.261-.546-19.445-.408-14.686,2.291-.063.413,14.749.545,19.428L484,695.979Z" transform="translate(-253.816 -362.756)" fill="#3f3d56"/>
  <path id="Path_11" data-name="Path 11" d="M402.205,695.979l-7.395-6.206.172,6.206h-2.291l-.184-6.562-9.984,6.563h-4.18l14.083-9.261-.545-19.445-.408-14.686,2.3-.063.413,14.749.54,19.428,11.052,9.278Z" transform="translate(-210.332 -362.756)" fill="#3f3d56"/>
  <path id="Path_12" data-name="Path 12" d="M570.937,377.744c-2.025,0-3.812,1.573-5.007,3.99-1.053-3.634-3.265-6.161-5.849-6.161a3.933,3.933,0,0,0-.521.088c-.993-3.88-3.3-6.6-5.992-6.6-3.6,0-6.513,4.86-6.513,10.855s2.916,10.855,6.513,10.855a3.938,3.938,0,0,0,.521-.088c.993,3.88,3.3,6.6,5.992,6.6,2.026,0,3.812-1.573,5.007-3.99,1.053,3.634,3.265,6.161,5.849,6.161,3.6,0,6.513-4.86,6.513-10.855S574.535,377.744,570.937,377.744Z" transform="translate(-373.449 -233.407)" fill="#3f3d56"/>
  <path id="Path_13" data-name="Path 13" d="M0,0H0A21.711,21.711,0,0,1,21.711,21.711V32.567A21.711,21.711,0,0,1,0,54.278H0Z" transform="translate(127.116 251.556) rotate(180)" fill="#c8003a"/>
  <path id="Path_14" data-name="Path 14" d="M598.3,444.248h0a21.711,21.711,0,0,1,21.711,21.711v10.855A21.711,21.711,0,0,1,598.3,498.526h0V444.248Z" transform="translate(-332.613 -246.97)" fill="#c8003a"/>
  <path id="Path_15" data-name="Path 15" d="M573.042,457.067H569.6a79.229,79.229,0,1,0-158.458,0H407.7a82.673,82.673,0,1,1,165.347,0Z" transform="translate(-295.975 -236.372)" fill="#c8003a"/>
  <path id="Path_16" data-name="Path 16" d="M131.69,368Z" transform="translate(-73.21 -204.58)" fill="#3f3d56"/>
  <path id="Path_17" data-name="Path 17" d="M309.672,405.3h0l-1.618-.674-6.828-2.887-2.448-1.035-.188.474h0l-3.288,8.3,9.253,3.916.049.044-.624,1.47a2.6,2.6,0,0,0-.218.424,2.041,2.041,0,0,0,1.168,2.509c.78.309,1.766-.335,2.2-1.438a2.32,2.32,0,0,0-.75-2.8h0l-1.618-.674-5.536-2.152,3.163-7.987-.469-.186-3.164,7.99-.685-.266,3.177-8.021.084.035,6.508,2.754.048.044-.623,1.47a2.6,2.6,0,0,0-.218.424,2.041,2.041,0,0,0,1.168,2.509c.78.309,1.766-.335,2.2-1.438A2.32,2.32,0,0,0,309.672,405.3Z" transform="translate(-233.493 -251)" fill="#3f3d56"/>
  <path id="Path_18" data-name="Path 18" d="M379.062,442.322c-3.359-1.92-2.687-6.135-2.687-6.135-.085-2.738-2.346-2.35-2.346-2.35l-.823.188a2.5,2.5,0,0,0-1.224-.226l-1.252.211a2.973,2.973,0,0,1,2.617,3.055l.4,2.789-7.472-3.014.858-2.023a3.61,3.61,0,0,0,.3-.589,2.834,2.834,0,0,0-1.622-3.484c-1.083-.429-2.453.465-3.06,2-.6,1.511-.014,3.43,1.042,3.894v0l2.248.936.017-.053Zm-3.794-4.9.24,2.67A6.158,6.158,0,0,1,374.386,436a2.586,2.586,0,0,0-.5-1.432,3.033,3.033,0,0,1,1.383,2.851Z" transform="translate(-270.856 -267.638)" fill="#3f3d56"/>
  <path id="Path_19" data-name="Path 19" d="M252.165,356.465v0l-2.248-.936-9.394-3.652,2.371-2.109a3,3,0,0,1,4.093-.671L246.253,348s-1.383-1.831-3.319.106c0,0-2.4,3.532-6.159,2.631l12.852,5.439.067.061-.866,2.042a3.607,3.607,0,0,0-.3.589,2.834,2.834,0,0,0,1.622,3.484c1.083.429,2.453-.465,3.06-2C253.806,358.848,253.221,356.929,252.165,356.465Z" transform="translate(-200.955 -221.264)" fill="#3f3d56"/>
  <path id="Path_20" data-name="Path 20" d="M332.707,318.981l-.866,2.042a3.61,3.61,0,0,0-.3.589,2.834,2.834,0,0,0,1.622,3.484c1.083.429,2.453-.465,3.06-2,.6-1.511.014-3.43-1.042-3.894v0l-2.248-.936-7.689-2.989,4.393-11.093-.651-.258-4.4,11.1-.951-.37,4.412-11.14.116.049,9.038,3.825.067.061-.866,2.042a3.62,3.62,0,0,0-.3.589,2.834,2.834,0,0,0,1.622,3.484c1.083.429,2.453-.465,3.06-2,.6-1.511.014-3.43-1.042-3.894v0l-2.248-.936-9.186-3.883h0l-.3-.126-3.4-1.437-4.827,12.189,12.852,5.439ZM324.354,301.951Z" transform="translate(-247.104 -195.733)" fill="#3f3d56"/>
  <path id="Path_21" data-name="Path 21" d="M224,180.629l0,0-3.869-1.611-16.171-6.286,4.082-3.631a5.155,5.155,0,0,1,7.046-1.154l-1.267-1.882s-2.381-3.152-5.714.183c0,0-4.124,6.08-10.6,4.53l22.123,9.364.116.105-1.491,3.515a6.219,6.219,0,0,0-.52,1.015c-1.044,2.637.928,5.26,2.793,6s4.223-.8,5.267-3.437C226.823,184.732,225.816,181.428,224,180.629Z" transform="translate(-179.124 -119.804)" fill="#3f3d56"/>
  <path id="Path_22" data-name="Path 22" d="M234.37,284.491c-8.031-4.592-6.424-14.668-6.424-14.668-.2-6.546-5.61-5.619-5.61-5.619l-1.968.449a5.977,5.977,0,0,0-2.927-.541l-2.994.5c6.818,1.6,6.258,7.305,6.258,7.305l.955,6.669-17.865-7.207,2.051-4.836a8.638,8.638,0,0,0,.722-1.409c1.451-3.662-1.289-7.305-3.879-8.331s-5.865,1.112-7.316,4.774c-1.431,3.612-.033,8.2,2.491,9.31l0,0,5.374,2.238.04-.127ZM225.3,272.773l.575,6.405a14.675,14.675,0,0,1-2.684-9.8,6.184,6.184,0,0,0-1.2-3.424,7.252,7.252,0,0,1,3.305,6.816Z" transform="translate(-177.621 -170.859)" fill="#3f3d56"/>
</svg>
